<svg xmlns="http://www.w3.org/2000/svg" width="256" height="256" viewBox="0 0 256 256" aria-hidden="true">
  <defs><linearGradient id="g" x1="0" y1="0" x2="1" y2="1"><stop offset="0" stop-color="#2A9D8F"/><stop offset="1" stop-color="#1F776F"/></linearGradient></defs>
  <rect width="256" height="256" rx="48" fill="#F8FAFC"/>
  <path d="M128 44c-38 0-68 30-68 68 0 26 13 47 32 59 4 2 7 1 9-3 5-9 14-23 27-23s22 14 27 23c2 4 5 5 9 3 19-12 32-33 32-59 0-38-30-68-68-68z" fill="url(#g)"/>
  <circle cx="100" cy="116" r="8" fill="#fff"/>
</svg>